%TF.GenerationSoftware,KiCad,Pcbnew,9.0.6*%
%TF.CreationDate,2025-11-08T15:20:26+00:00*%
%TF.ProjectId,Hall_Sensor_V1,48616c6c-5f53-4656-9e73-6f725f56312e,rev?*%
%TF.SameCoordinates,Original*%
%TF.FileFunction,Copper,L2,Bot*%
%TF.FilePolarity,Positive*%
%FSLAX46Y46*%
G04 Gerber Fmt 4.6, Leading zero omitted, Abs format (unit mm)*
G04 Created by KiCad (PCBNEW 9.0.6) date 2025-11-08 15:20:26*
%MOMM*%
%LPD*%
G01*
G04 APERTURE LIST*
G04 APERTURE END LIST*
%TA.AperFunction,Conductor*%
%TO.N,Earth*%
G36*
X120705703Y-73444513D02*
G01*
X120742431Y-73499908D01*
X120748444Y-73518414D01*
X120844951Y-73707820D01*
X120969890Y-73879786D01*
X121120213Y-74030109D01*
X121292179Y-74155048D01*
X121292181Y-74155049D01*
X121292184Y-74155051D01*
X121481588Y-74251557D01*
X121500092Y-74257569D01*
X121557768Y-74297006D01*
X121584966Y-74361365D01*
X121573051Y-74430211D01*
X121525807Y-74481687D01*
X121461774Y-74499500D01*
X121006962Y-74499500D01*
X120993078Y-74498720D01*
X120980553Y-74497308D01*
X120902735Y-74488540D01*
X120875666Y-74482362D01*
X120796462Y-74454648D01*
X120771444Y-74442600D01*
X120700395Y-74397957D01*
X120678686Y-74380644D01*
X120619355Y-74321313D01*
X120602042Y-74299604D01*
X120598707Y-74294297D01*
X120557398Y-74228553D01*
X120545351Y-74203537D01*
X120528385Y-74155051D01*
X120517636Y-74124331D01*
X120511459Y-74097263D01*
X120501280Y-74006922D01*
X120500500Y-73993038D01*
X120500500Y-73538226D01*
X120520185Y-73471187D01*
X120572989Y-73425432D01*
X120642147Y-73415488D01*
X120705703Y-73444513D01*
G37*
%TD.AperFunction*%
%TA.AperFunction,Conductor*%
G36*
X134006922Y-60501280D02*
G01*
X134097266Y-60511459D01*
X134124331Y-60517636D01*
X134203540Y-60545352D01*
X134228553Y-60557398D01*
X134299606Y-60602043D01*
X134321313Y-60619355D01*
X134380644Y-60678686D01*
X134397957Y-60700395D01*
X134442600Y-60771444D01*
X134454648Y-60796462D01*
X134482362Y-60875666D01*
X134488540Y-60902735D01*
X134498720Y-60993076D01*
X134499500Y-61006961D01*
X134499500Y-73993038D01*
X134498720Y-74006922D01*
X134498720Y-74006923D01*
X134488540Y-74097264D01*
X134482362Y-74124333D01*
X134454648Y-74203537D01*
X134442600Y-74228555D01*
X134397957Y-74299604D01*
X134380644Y-74321313D01*
X134321313Y-74380644D01*
X134299604Y-74397957D01*
X134228555Y-74442600D01*
X134203537Y-74454648D01*
X134124333Y-74482362D01*
X134097264Y-74488540D01*
X134017075Y-74497576D01*
X134006921Y-74498720D01*
X133993038Y-74499500D01*
X122538226Y-74499500D01*
X122471187Y-74479815D01*
X122425432Y-74427011D01*
X122415488Y-74357853D01*
X122444513Y-74294297D01*
X122499906Y-74257569D01*
X122518412Y-74251557D01*
X122707816Y-74155051D01*
X122750096Y-74124333D01*
X122879786Y-74030109D01*
X122879788Y-74030106D01*
X122879792Y-74030104D01*
X123030104Y-73879792D01*
X123030106Y-73879788D01*
X123030109Y-73879786D01*
X123155048Y-73707820D01*
X123155047Y-73707820D01*
X123155051Y-73707816D01*
X123251557Y-73518412D01*
X123317246Y-73316243D01*
X123350500Y-73106287D01*
X123350500Y-72893713D01*
X123317246Y-72683757D01*
X123251557Y-72481588D01*
X123155051Y-72292184D01*
X123155049Y-72292181D01*
X123155048Y-72292179D01*
X123030109Y-72120213D01*
X122879786Y-71969890D01*
X122707820Y-71844951D01*
X122518414Y-71748444D01*
X122518413Y-71748443D01*
X122518412Y-71748443D01*
X122316243Y-71682754D01*
X122316241Y-71682753D01*
X122316240Y-71682753D01*
X122154957Y-71657208D01*
X122106287Y-71649500D01*
X121893713Y-71649500D01*
X121845042Y-71657208D01*
X121683760Y-71682753D01*
X121481585Y-71748444D01*
X121292179Y-71844951D01*
X121120213Y-71969890D01*
X120969890Y-72120213D01*
X120844951Y-72292179D01*
X120748445Y-72481582D01*
X120748443Y-72481587D01*
X120748443Y-72481588D01*
X120742429Y-72500094D01*
X120702992Y-72557768D01*
X120638633Y-72584965D01*
X120569787Y-72573050D01*
X120518312Y-72525805D01*
X120500500Y-72461773D01*
X120500500Y-61006961D01*
X120501280Y-60993077D01*
X120501280Y-60993076D01*
X120511460Y-60902729D01*
X120517635Y-60875670D01*
X120545353Y-60796456D01*
X120557396Y-60771450D01*
X120602046Y-60700389D01*
X120619351Y-60678690D01*
X120678690Y-60619351D01*
X120700389Y-60602046D01*
X120771450Y-60557396D01*
X120796456Y-60545353D01*
X120875670Y-60517635D01*
X120902733Y-60511459D01*
X120965419Y-60504396D01*
X120993079Y-60501280D01*
X121006962Y-60500500D01*
X121065892Y-60500500D01*
X133934108Y-60500500D01*
X133993038Y-60500500D01*
X134006922Y-60501280D01*
G37*
%TD.AperFunction*%
%TD*%
M02*
